<?xml version="1.0" encoding="utf-8"?>
<!-- Generator: Adobe Illustrator 24.1.0, SVG Export Plug-In . SVG Version: 6.00 Build 0)  -->
<svg version="1.1" id="Layer_1" xmlns="http://www.w3.org/2000/svg" xmlns:xlink="http://www.w3.org/1999/xlink" x="0px" y="0px"
	 viewBox="0 0 200 42" style="enable-background:new 0 0 200 42;" xml:space="preserve">
<style type="text/css">
	.st0{fill:#FAB7C4;}
	.st1{enable-background:new    ;}
</style>
<g id="Artboard">
	<g id="rockwood-logo">
		<path id="Shape" class="st0" d="M41.3,26.9c-1.6,5.9-5.3,3.4-9.1,2.8c-2.9-0.8-12.5-0.9-11.6-4.1c0.4-1.6,3.8-3.2,5.3-3.7
			c1.5-0.5,5.2-1.1,6.6-1.1C36.6,20.9,43.3,19.7,41.3,26.9z M0.2,25.8c-1.1-6.2,3.1-4.2,4.7-3.6c2,0.7,8.4,2.9,6.5,5.5
			c-0.8,1.1-7.4,2.4-8.7,1.9C1,28.9,0.3,26.5,0.2,25.8z M18.2,18.5c5.3,2.3,2.2,4.8,1,6.9c-0.7,1.3-1.6,4.1-3.4,3.5
			c-2.5-0.9-3.3-3.2-2.5-5c0.2-0.4,0.4-2.4,0.5-2.8C14,17.5,16.7,17.8,18.2,18.5L18.2,18.5z M7.7,12.8c1.1,1.5,4.8,7.8,3.1,9.3
			c-1.1,1-8.8-1.5-9.6-2.6c-1.3-1.8-0.6-7.6,1-8.5C2.2,11,4.9,8.9,7.7,12.8L7.7,12.8z M38.7,13.7c1.6,6.1-5.1,5.9-8.6,6.4
			c-1.8,0.2-6.3,1.8-6.5-0.4C23.5,17,29,15.2,30.5,14C33.1,12.7,37.5,9.1,38.7,13.7L38.7,13.7z M27.7,2.7c0,0,3.4,1.5-2.7,10.1
			c-1.1,1.6-2.7,3-4.1,4.3c-2.2,2-3.6-0.6-2.8-2.3c0.8-1.7,2.6-5.6,2.6-5.6C22.3,5.4,22.3-0.2,27.7,2.7z M16,1
			c1.7-1,5.2-1.2,4.9,4.1c-0.5,3.3-2.5,7.1-3.1,8.4c-0.8,1.6-1.6,3.7-3.2,4.2c-3,1-3.6-6.9-3.4-8.6C11.6,6,13.3,2.6,16,1L16,1z
			 M32.1,9.5c1.6,1.1,0.4,1.8-1.1,2.9c-0.8,0.6-2.4,1.9-3.5,1.4c-1.4-0.6-0.4-3.3,0.6-4.3C29.8,7.4,31.2,8.9,32.1,9.5z M8.5,7
			c0.7,0.2,0.9,1.8,1.1,2.4c1,4.1-2.3,2-2.7-0.5C7,8.3,7.8,6.8,8.5,7z"/>
		<g id="Group" transform="translate(20.604150, 29.853600)">
			<g id="Clipped">
				<g id="q2ojksjnxa">
				</g>
				<path id="Path" class="st0" d="M0.6,0.8c1.7-1.9,8.9,0.6,11,1.4c2.8,0.9,5.7,3,2.6,5.8c-2.3,2-7.4,3.3-10.3,3.1
					c-2.6-0.2-2.3-0.8-2.5-3.4C1.2,5.5-0.4,2.8,0.6,0.8"/>
			</g>
		</g>
		<path id="Path_1_" class="st0" d="M6.1,30.8c3.2-0.7,7.3-2,9.2,1c2.2,3.5,1.4,9.4-3.3,7.9C9.7,38.9-1.6,32.6,6.1,30.8"/>
	</g>
	<g class="st1">
		<path d="M60.1,21l-3.5-6.4h-1V21h-4.1V4.2h6.9c1.3,0,2.5,0.2,3.4,0.7c0.9,0.5,1.6,1.1,2.1,1.9c0.5,0.8,0.7,1.7,0.7,2.7
			c0,1.1-0.3,2.1-0.9,3c-0.6,0.9-1.6,1.5-2.8,1.9l3.9,6.7H60.1z M55.6,11.7h2.5c0.8,0,1.3-0.2,1.7-0.6c0.4-0.4,0.6-0.9,0.6-1.6
			c0-0.6-0.2-1.1-0.6-1.5c-0.4-0.4-0.9-0.6-1.7-0.6h-2.5V11.7z"/>
		<path d="M70.7,20.1c-1.3-0.7-2.4-1.8-3.1-3.1c-0.8-1.3-1.2-2.8-1.2-4.5c0-1.6,0.4-3.1,1.2-4.4c0.8-1.3,1.8-2.3,3.1-3.1
			c1.3-0.7,2.8-1.1,4.4-1.1s3,0.4,4.4,1.1c1.3,0.7,2.4,1.8,3.1,3.1c0.8,1.3,1.1,2.8,1.1,4.4c0,1.6-0.4,3.1-1.2,4.5
			c-0.8,1.3-1.8,2.3-3.1,3.1c-1.3,0.7-2.8,1.1-4.3,1.1S72.1,20.8,70.7,20.1z M78.3,16.1c0.8-0.9,1.2-2.1,1.2-3.6
			c0-1.5-0.4-2.7-1.2-3.6c-0.8-0.9-1.9-1.3-3.2-1.3c-1.4,0-2.4,0.4-3.3,1.3c-0.8,0.9-1.2,2.1-1.2,3.6c0,1.5,0.4,2.7,1.2,3.6
			c0.8,0.9,1.9,1.3,3.3,1.3C76.4,17.4,77.5,17,78.3,16.1z"/>
		<path d="M86.4,8.1c0.7-1.3,1.7-2.3,3-3C90.7,4.3,92.1,4,93.8,4c2,0,3.7,0.5,5.1,1.6c1.4,1.1,2.4,2.5,2.9,4.3h-4.5
			c-0.3-0.7-0.8-1.2-1.4-1.6c-0.6-0.4-1.3-0.6-2.1-0.6c-1.3,0-2.3,0.4-3.1,1.3c-0.8,0.9-1.2,2.1-1.2,3.5c0,1.5,0.4,2.6,1.2,3.5
			c0.8,0.9,1.8,1.3,3.1,1.3c0.8,0,1.5-0.2,2.1-0.6c0.6-0.4,1.1-0.9,1.4-1.6h4.5c-0.5,1.8-1.4,3.3-2.9,4.3c-1.4,1-3.1,1.6-5.1,1.6
			c-1.6,0-3.1-0.4-4.4-1.1c-1.3-0.7-2.3-1.7-3-3c-0.7-1.3-1.1-2.8-1.1-4.4S85.7,9.4,86.4,8.1z"/>
		<path d="M114.1,21l-5.7-7.4V21h-4.1V4.2h4.1v7.4l5.6-7.4h4.8l-6.5,8.3l6.8,8.6H114.1z"/>
		<path d="M144.2,4.2L139.8,21h-5l-2.7-11.1L129.4,21h-5l-4.3-16.8h4.4l2.4,12.3l3-12.3h4.5l2.9,12.3l2.4-12.3H144.2z"/>
		<path d="M149.9,20.1c-1.3-0.7-2.4-1.8-3.1-3.1c-0.8-1.3-1.2-2.8-1.2-4.5c0-1.6,0.4-3.1,1.2-4.4c0.8-1.3,1.8-2.3,3.1-3.1
			c1.3-0.7,2.8-1.1,4.4-1.1s3,0.4,4.4,1.1c1.3,0.7,2.4,1.8,3.1,3.1c0.8,1.3,1.1,2.8,1.1,4.4c0,1.6-0.4,3.1-1.2,4.5
			c-0.8,1.3-1.8,2.3-3.1,3.1c-1.3,0.7-2.8,1.1-4.3,1.1S151.2,20.8,149.9,20.1z M157.5,16.1c0.8-0.9,1.2-2.1,1.2-3.6
			c0-1.5-0.4-2.7-1.2-3.6c-0.8-0.9-1.9-1.3-3.2-1.3c-1.4,0-2.4,0.4-3.3,1.3c-0.8,0.9-1.2,2.1-1.2,3.6c0,1.5,0.4,2.7,1.2,3.6
			c0.8,0.9,1.9,1.3,3.3,1.3C155.6,17.4,156.7,17,157.5,16.1z"/>
		<path d="M168.7,20.1c-1.3-0.7-2.4-1.8-3.1-3.1c-0.8-1.3-1.2-2.8-1.2-4.5c0-1.6,0.4-3.1,1.2-4.4c0.8-1.3,1.8-2.3,3.1-3.1
			c1.3-0.7,2.8-1.1,4.4-1.1s3,0.4,4.4,1.1c1.3,0.7,2.4,1.8,3.1,3.1c0.8,1.3,1.1,2.8,1.1,4.4c0,1.6-0.4,3.1-1.2,4.5
			c-0.8,1.3-1.8,2.3-3.1,3.1c-1.3,0.7-2.8,1.1-4.3,1.1S170.1,20.8,168.7,20.1z M176.3,16.1c0.8-0.9,1.2-2.1,1.2-3.6
			c0-1.5-0.4-2.7-1.2-3.6c-0.8-0.9-1.9-1.3-3.2-1.3c-1.4,0-2.4,0.4-3.3,1.3s-1.2,2.1-1.2,3.6c0,1.5,0.4,2.7,1.2,3.6
			c0.8,0.9,1.9,1.3,3.3,1.3C174.4,17.4,175.5,17,176.3,16.1z"/>
		<path d="M195,5.2c1.3,0.7,2.4,1.7,3.1,3c0.7,1.3,1.1,2.7,1.1,4.4c0,1.6-0.4,3.1-1.1,4.4c-0.7,1.3-1.8,2.3-3.1,3s-2.9,1.1-4.6,1.1
			H184V4.2h6.3C192.1,4.2,193.6,4.5,195,5.2z M193.7,16.2c0.9-0.8,1.3-2,1.3-3.6s-0.4-2.8-1.3-3.6s-2.1-1.3-3.6-1.3h-1.9v9.8h1.9
			C191.6,17.4,192.8,17,193.7,16.2z"/>
	</g>
	<g class="st1">
		<path d="M56.9,31.4c0.3,0.2,0.5,0.5,0.7,0.9c0.2,0.3,0.3,0.7,0.3,1.1c0,0.5-0.1,0.9-0.4,1.3c-0.3,0.4-0.6,0.7-1.1,0.9
			c-0.5,0.2-1,0.3-1.7,0.3h-3.6v-9.8h3.5c0.7,0,1.2,0.1,1.7,0.3c0.5,0.2,0.8,0.5,1,0.9s0.4,0.8,0.4,1.3c0,0.6-0.2,1.1-0.5,1.4
			c-0.3,0.4-0.7,0.7-1.2,0.8C56.3,31,56.6,31.2,56.9,31.4z M52.4,30.5h2.1c0.6,0,1.1-0.1,1.4-0.4s0.5-0.7,0.5-1.2
			c0-0.5-0.2-0.9-0.5-1.2s-0.8-0.4-1.4-0.4h-2.1V30.5z M56.1,34.5c0.4-0.3,0.5-0.7,0.5-1.2c0-0.5-0.2-1-0.6-1.3
			c-0.4-0.3-0.9-0.5-1.5-0.5h-2.2V35h2.3C55.2,35,55.7,34.8,56.1,34.5z"/>
		<path d="M62.9,27.3v3.3h3.6v1h-3.6V35h4v1h-5.2v-9.8h5.2v1.1H62.9z"/>
		<path d="M76.6,26.8c0.8,0.4,1.4,1,1.8,1.7c0.4,0.7,0.6,1.6,0.6,2.6c0,1-0.2,1.9-0.6,2.6c-0.4,0.7-1,1.3-1.8,1.7
			c-0.8,0.4-1.7,0.6-2.8,0.6h-3v-9.8h3C74.9,26.2,75.8,26.4,76.6,26.8z M76.7,33.9c0.7-0.7,1-1.6,1-2.8c0-1.2-0.3-2.2-1-2.8
			c-0.7-0.7-1.6-1-2.9-1h-1.8V35h1.8C75.1,35,76.1,34.6,76.7,33.9z"/>
		<path d="M95.9,36l-1.3-1.3c-0.5,0.5-1,0.9-1.5,1.1c-0.5,0.2-1.2,0.4-1.8,0.4c-0.7,0-1.3-0.1-1.8-0.4c-0.5-0.2-0.9-0.6-1.2-1
			c-0.3-0.4-0.4-1-0.4-1.6c0-0.7,0.2-1.3,0.6-1.8c0.4-0.5,1-0.9,1.7-1.2c-0.3-0.4-0.5-0.7-0.6-1s-0.2-0.6-0.2-1
			c0-0.4,0.1-0.8,0.3-1.1c0.2-0.3,0.5-0.6,0.9-0.8s0.8-0.3,1.4-0.3c0.5,0,0.9,0.1,1.3,0.3c0.4,0.2,0.7,0.5,0.8,0.8
			c0.2,0.3,0.3,0.7,0.3,1.2H93c0-0.4-0.1-0.7-0.3-0.9c-0.2-0.2-0.5-0.3-0.9-0.3c-0.4,0-0.7,0.1-0.9,0.3c-0.2,0.2-0.3,0.5-0.3,0.8
			c0,0.3,0.1,0.6,0.2,0.8c0.2,0.3,0.4,0.6,0.8,1l2.9,2.9l0.3-0.4l1-1.6h1.4l-1.1,2c-0.2,0.3-0.3,0.6-0.6,0.9l2.2,2.2H95.9z
			 M92.7,34.8c0.4-0.2,0.8-0.5,1.2-0.9L90.9,31c-1.2,0.5-1.8,1.2-1.8,2.2c0,0.6,0.2,1,0.6,1.4c0.4,0.4,0.9,0.5,1.5,0.5
			C91.8,35.1,92.2,35,92.7,34.8z"/>
		<path d="M112.3,31.4c0.3,0.2,0.5,0.5,0.7,0.9c0.2,0.3,0.3,0.7,0.3,1.1c0,0.5-0.1,0.9-0.4,1.3c-0.3,0.4-0.6,0.7-1.1,0.9
			s-1,0.3-1.7,0.3h-3.6v-9.8h3.5c0.7,0,1.2,0.1,1.7,0.3c0.5,0.2,0.8,0.5,1,0.9s0.4,0.8,0.4,1.3c0,0.6-0.2,1.1-0.5,1.4
			c-0.3,0.4-0.7,0.7-1.2,0.8C111.7,31,112.1,31.2,112.3,31.4z M107.8,30.5h2.1c0.6,0,1.1-0.1,1.4-0.4c0.3-0.3,0.5-0.7,0.5-1.2
			c0-0.5-0.2-0.9-0.5-1.2c-0.3-0.3-0.8-0.4-1.4-0.4h-2.1V30.5z M111.5,34.5c0.4-0.3,0.5-0.7,0.5-1.2c0-0.5-0.2-1-0.6-1.3
			c-0.4-0.3-0.9-0.5-1.5-0.5h-2.2V35h2.3C110.7,35,111.1,34.8,111.5,34.5z"/>
		<path d="M122.2,36l-2.3-4h-1.5v4h-1.3v-9.8h3.1c0.7,0,1.4,0.1,1.9,0.4c0.5,0.3,0.9,0.6,1.1,1c0.3,0.4,0.4,0.9,0.4,1.5
			c0,0.7-0.2,1.3-0.6,1.8c-0.4,0.5-1,0.9-1.7,1l2.5,4.1H122.2z M118.3,31h1.9c0.7,0,1.2-0.2,1.6-0.5c0.3-0.3,0.5-0.8,0.5-1.4
			c0-0.6-0.2-1-0.5-1.3c-0.3-0.3-0.9-0.5-1.6-0.5h-1.9V31z"/>
		<path d="M128.8,27.3v3.3h3.6v1h-3.6V35h4v1h-5.2v-9.8h5.2v1.1H128.8z"/>
		<path d="M142.5,33.8h-4.3l-0.8,2.2h-1.3l3.5-9.7h1.5l3.5,9.7h-1.3L142.5,33.8z M142.1,32.8l-1.8-4.9l-1.8,4.9H142.1z"/>
		<path d="M153.4,36l-4-4.5V36h-1.3v-9.8h1.3v4.5l4-4.5h1.6l-4.4,4.9l4.5,4.9H153.4z"/>
		<path d="M164,26.2v1h-4.2v3.3h3.4v1h-3.4V36h-1.3v-9.8H164z"/>
		<path d="M173.3,33.8h-4.3l-0.8,2.2H167l3.5-9.7h1.5l3.5,9.7h-1.3L173.3,33.8z M173,32.8l-1.8-4.9l-1.8,4.9H173z"/>
		<path d="M180.4,35.8c-0.5-0.2-0.9-0.5-1.2-1c-0.3-0.4-0.4-0.9-0.4-1.4h1.4c0,0.5,0.2,0.8,0.6,1.2c0.3,0.3,0.8,0.5,1.4,0.5
			c0.6,0,1.1-0.2,1.4-0.5c0.3-0.3,0.5-0.7,0.5-1.2c0-0.4-0.1-0.7-0.3-0.9s-0.5-0.4-0.8-0.5c-0.3-0.1-0.7-0.3-1.2-0.4
			c-0.6-0.2-1.2-0.3-1.5-0.5c-0.4-0.2-0.7-0.4-1-0.8c-0.3-0.4-0.4-0.8-0.4-1.4c0-0.5,0.1-1,0.4-1.4c0.3-0.4,0.7-0.7,1.1-1
			c0.5-0.2,1.1-0.3,1.7-0.3c0.9,0,1.7,0.2,2.2,0.7c0.6,0.5,0.9,1.1,1,1.8h-1.4c0-0.4-0.2-0.7-0.6-1c-0.3-0.3-0.8-0.4-1.4-0.4
			c-0.5,0-1,0.1-1.3,0.4s-0.5,0.7-0.5,1.2c0,0.4,0.1,0.6,0.3,0.9c0.2,0.2,0.4,0.4,0.7,0.5c0.3,0.1,0.7,0.2,1.2,0.4
			c0.6,0.2,1.2,0.4,1.6,0.5c0.4,0.2,0.7,0.4,1,0.8c0.3,0.4,0.4,0.8,0.4,1.5c0,0.5-0.1,0.9-0.4,1.3s-0.6,0.8-1.1,1
			c-0.5,0.3-1.1,0.4-1.8,0.4C181.4,36.1,180.9,36,180.4,35.8z"/>
		<path d="M195.2,26.2v1h-2.7V36h-1.3v-8.7h-2.7v-1H195.2z"/>
	</g>
</g>
</svg>
