<?xml version="1.0" encoding="UTF-8"?>
<svg width="200px" height="42px" viewBox="0 0 200 42" version="1.1" xmlns="http://www.w3.org/2000/svg" xmlns:xlink="http://www.w3.org/1999/xlink">
    <title>Artboard</title>
    <defs>
        <polygon id="path-1" points="0.27405 0.0735 15.54315 0.0735 15.54315 11.0943 0.27405 11.0943"></polygon>
    </defs>
    <g id="Artboard" stroke="none" stroke-width="1" fill="none" fill-rule="evenodd">
        <g id="rockwood-logo">
            <path d="M41.34585,26.922 C39.77085,32.823 36.0528,30.2946 32.22135,29.70135 C29.3097,28.9023 19.7232,28.8372 20.6157,25.62105 C21.0462,24.06915 24.3852,22.39545 25.9623,21.91665 C27.4659,21.46095 31.12935,20.7879 32.60565,20.7816 C36.64185,20.90235 43.27365,19.70745 41.34585,26.922 Z M0.1785,25.7943 C-0.9051,19.5573 3.2361,21.6258 4.86465,22.2117 C6.81765,22.9446 13.31085,25.1265 11.34,27.74415 C10.5336,28.81305 3.93015,30.1665 2.6838,29.61315 C1.03215,28.8792 0.294,26.46735 0.1785,25.7943 Z M18.2112,18.48315 C23.54835,20.7438 20.37735,23.289 19.2318,25.4079 C18.5367,26.69415 17.65785,29.5239 15.83715,28.8687 C13.3665,27.9804 12.5265,25.6851 13.3098,23.89905 C13.47465,23.52315 13.73925,21.46725 13.76865,21.0588 C14.02065,17.54235 16.66245,17.82795 18.21015,18.48315 L18.2112,18.48315 Z M7.6629,12.7785 C8.7129,14.25585 12.4341,20.56215 10.7667,22.0794 C9.65265,23.0937 1.97715,20.5863 1.1802,19.4544 C-0.10815,17.6274 0.6216,11.8104 2.1777,10.9704 C2.1777,10.9704 4.9014,8.8914 7.6629,12.7785 L7.6629,12.7785 Z M38.6715,13.713 C40.2675,19.79355 33.56955,19.61295 30.1203,20.0865 C28.32375,20.33325 23.80035,21.84525 23.66175,19.6413 C23.49795,17.0478 28.96635,15.1683 30.5424,13.965 C33.12855,12.6777 37.4724,9.1455 38.6715,13.713 L38.6715,13.713 Z M27.7284,2.6544 C27.7284,2.6544 31.1094,4.19895 25.06875,12.8016 C23.919,14.4396 22.3776,15.7689 20.92125,17.1087 C18.72675,19.12785 17.2788,16.5165 18.10515,14.8344 C18.93465,13.14915 20.74905,9.21585 20.74905,9.21585 C22.29465,5.42115 22.34505,-0.1953 27.7284,2.6544 Z M15.95475,0.95655 C17.6169,-0.0588 21.14595,-0.21735 20.80995,5.0946 C20.35845,8.3874 18.2847,12.1632 17.70825,13.4736 C16.8924,15.07485 16.08285,17.2011 14.55195,17.69985 C11.5962,18.6648 10.94415,10.8003 11.16045,9.11085 C11.5563,6.04695 13.2993,2.57775 15.95475,0.95655 L15.95475,0.95655 Z M32.05335,9.5046 C33.66615,10.57245 32.46915,11.35155 31.0023,12.39945 C30.219,12.9591 28.59675,14.28945 27.52995,13.8054 C26.17335,13.1901 27.1068,10.53045 28.0812,9.5529 C29.8368,7.4067 31.18185,8.92815 32.05335,9.5046 Z M8.4987,7.0035 C9.17805,7.16835 9.4479,8.841 9.59385,9.44685 C10.58715,13.58385 7.26075,11.4492 6.89115,8.98485 C6.9762,8.3076 7.812,6.8376 8.4987,7.0035 Z" id="Shape" fill="#FAB7C4" fill-rule="nonzero"></path>
            <g id="Group" transform="translate(20.604150, 29.853600)">
                <g id="Clipped">
                    <mask id="mask-2" fill="white">
                        <use xlink:href="#path-1"></use>
                    </mask>
                    <g id="q2ojksjnxa"></g>
                    <path d="M0.60585,0.7791 C2.35515,-1.155 9.4836,1.42275 11.58885,2.1294 C14.3829,3.066 17.32185,5.1744 14.20755,7.9737 C11.9532,10.00125 6.7746,11.24655 3.93855,11.0796 C1.33035,10.92525 1.62855,10.29735 1.407,7.6461 C1.2285,5.5167 -0.4137,2.8287 0.60585,0.77805" id="Path" fill="#FAB7C4" fill-rule="nonzero" mask="url(#mask-2)"></path>
                </g>
            </g>
            <path d="M6.0795,30.7524 C9.2883,30.00375 13.3896,28.7511 15.2775,31.7604 C17.48775,35.2821 16.716,41.1285 11.94795,39.61755 C9.68625,38.9004 -1.5939,32.62455 6.08055,30.7524" id="Path" fill="#FAB7C4" fill-rule="nonzero"></path>
        </g>
        <text id="ROCKWOOD" font-family="Poppins-Bold, Poppins" font-size="24" font-weight="bold" fill="#FFFFFF">
            <tspan x="50" y="21">ROCKWOOD</tspan>
        </text>
        <text id="BED-&amp;-BREAKFAST" font-family="Poppins-Regular, Poppins" font-size="14" font-weight="normal" line-spacing="21" letter-spacing="2.4" fill="#FFFFFF">
            <tspan x="50" y="36">BED &amp; BREAKFAST</tspan>
        </text>
    </g>
</svg>