<?xml version="1.0" encoding="UTF-8"?>
<svg width="32px" height="32px" viewBox="0 0 32 32" version="1.1" xmlns="http://www.w3.org/2000/svg" xmlns:xlink="http://www.w3.org/1999/xlink">
    <title>parking</title>
    <g id="parking" stroke="none" stroke-width="1" fill="none" fill-rule="evenodd">
        <g transform="translate(4.000000, 4.000000)" fill="#000000" fill-rule="nonzero" id="Shape">
            <path d="M12,0 C5.372583,0 0,5.372583 0,12 C0,18.627417 5.372583,24 12,24 C18.627417,24 24,18.627417 24,12 C23.9925602,5.37566713 18.6243329,0.00743982682 12,0 Z M12,22 C6.4771525,22 2,17.5228475 2,12 C2,6.4771525 6.4771525,2 12,2 C17.5228475,2 22,6.4771525 22,12 C21.9937314,17.5202489 17.5202489,21.9937314 12,22 Z" stroke="#FFFFFF" stroke-width="0.2"></path>
            <path d="M13.5,7 L10,7 C9.44771525,7 9,7.44771525 9,8 L9,18 L11,18 L11,14 L13.5,14 C15.4329966,14 17,12.4329966 17,10.5 C17,8.56700338 15.4329966,7 13.5,7 L13.5,7 Z M13.5,12 L11,12 L11,9 L13.5,9 C14.3284271,9 15,9.67157288 15,10.5 C15,11.3284271 14.3284271,12 13.5,12 Z"></path>
        </g>
    </g>
</svg>