<?xml version="1.0" encoding="UTF-8"?>
<svg width="32px" height="32px" viewBox="0 0 32 32" version="1.1" xmlns="http://www.w3.org/2000/svg" xmlns:xlink="http://www.w3.org/1999/xlink">
    <title>balcony</title>
    <g id="balcony" stroke="none" stroke-width="1" fill="none" fill-rule="evenodd">
        <g id="sun" transform="translate(4.000000, 4.000000)" fill="#000000" fill-rule="nonzero">
            <path d="M6.343,4.929 L4.929,3.515 C4.539,3.1245 3.905,3.1245 3.515,3.515 C3.1245,3.9055 3.1245,4.5385 3.515,4.929 L4.929,6.343 C5.124,6.5385 5.38,6.636 5.636,6.636 C5.892,6.636 6.148,6.5385 6.343,6.343 C6.7335,5.9525 6.7335,5.3195 6.343,4.929 Z" id="Path"></path>
            <path d="M3,11 L1,11 C0.448,11 0,11.448 0,12 C0,12.552 0.448,13 1,13 L3,13 C3.552,13 4,12.552 4,12 C4,11.448 3.552,11 3,11 Z" id="Path"></path>
            <path d="M6.343,17.657 C5.953,17.2665 5.319,17.2665 4.929,17.657 L3.515,19.071 C3.1245,19.4615 3.1245,20.0945 3.515,20.485 C3.71,20.6805 3.966,20.778 4.222,20.778 C4.478,20.778 4.734,20.6805 4.929,20.485 L6.343,19.071 C6.7335,18.6805 6.7335,18.0475 6.343,17.657 Z" id="Path"></path>
            <path d="M12,20 C11.448,20 11,20.448 11,21 L11,23 C11,23.552 11.448,24 12,24 C12.552,24 13,23.552 13,23 L13,21 C13,20.448 12.552,20 12,20 Z" id="Path"></path>
            <path d="M20.485,19.071 L19.071,17.657 C18.681,17.2665 18.047,17.2665 17.657,17.657 C17.2665,18.0475 17.2665,18.6805 17.657,19.071 L19.071,20.485 C19.266,20.6805 19.522,20.778 19.778,20.778 C20.034,20.778 20.29,20.6805 20.485,20.485 C20.8755,20.0945 20.8755,19.4615 20.485,19.071 Z" id="Path"></path>
            <path d="M23,11 L21,11 C20.448,11 20,11.448 20,12 C20,12.552 20.448,13 21,13 L23,13 C23.552,13 24,12.552 24,12 C24,11.448 23.552,11 23,11 Z" id="Path"></path>
            <path d="M20.485,3.515 C20.095,3.1245 19.461,3.1245 19.071,3.515 L17.657,4.929 C17.2665,5.3195 17.2665,5.9525 17.657,6.343 C17.852,6.5385 18.108,6.636 18.364,6.636 C18.62,6.636 18.876,6.5385 19.071,6.343 L20.485,4.929 C20.8755,4.5385 20.8755,3.9055 20.485,3.515 Z" id="Path"></path>
            <path d="M12,0 C11.448,0 11,0.448 11,1 L11,3 C11,3.552 11.448,4 12,4 C12.552,4 13,3.552 13,3 L13,1 C13,0.448 12.552,0 12,0 Z" id="Path"></path>
            <path d="M12,5.5 C8.416,5.5 5.5,8.416 5.5,12 C5.5,15.584 8.416,18.5 12,18.5 C15.584,18.5 18.5,15.584 18.5,12 C18.5,8.416 15.584,5.5 12,5.5 Z M12,16.5 C9.519,16.5 7.5,14.481 7.5,12 C7.5,9.519 9.519,7.5 12,7.5 C14.481,7.5 16.5,9.519 16.5,12 C16.5,14.481 14.481,16.5 12,16.5 Z" id="Shape"></path>
        </g>
    </g>
</svg>