<?xml version="1.0" encoding="UTF-8"?>
<svg width="32px" height="32px" viewBox="0 0 32 32" version="1.1" xmlns="http://www.w3.org/2000/svg" xmlns:xlink="http://www.w3.org/1999/xlink">
    <title>geyser</title>
    <g id="geyser" stroke="none" stroke-width="1" fill="none" fill-rule="evenodd">
        <g id="liquid" transform="translate(6.000000, 4.000000)" fill="#000000" fill-rule="nonzero">
            <path d="M17.4115312,10.7844844 C17.3979844,10.7616094 17.383875,10.7390156 17.3680313,10.7172656 L9.97040625,0.3549375 C9.8116875,0.132140625 9.55476562,0 9.28115625,0 C9.00726563,0 8.750625,0.132140625 8.59195312,0.3549375 L1.19428125,10.7172656 C1.17904688,10.7390156 1.164375,10.7613281 1.1510625,10.7844844 C-0.368578125,13.4055469 -0.344296875,16.5871406 1.21626563,19.2957187 C2.88782813,22.1974687 5.97820312,24 9.28115625,24 C12.5841094,24 15.6744844,22.1971875 17.3462812,19.2954375 C18.9065625,16.5870938 18.931125,13.4052656 17.4115312,10.7844844 Z M15.8783438,18.4498125 C14.508375,20.8283437 11.9804531,22.3058906 9.28115625,22.3058906 C6.58214062,22.3058906 4.05421875,20.828625 2.68396875,18.4500938 C1.41759375,16.2517031 1.38628125,13.7822344 2.59673437,11.6679844 L9.28115625,2.30484375 L15.9655781,11.6682187 C17.17575,13.7825156 17.1446719,16.2519375 15.8783438,18.4498125 Z" id="Shape"></path>
            <path d="M13.7140781,13.9485 C13.2462188,13.9485 12.867,14.3277187 12.867,14.7955781 C12.867,16.8036562 11.2330312,18.4376719 9.224625,18.4376719 C8.75676562,18.4376719 8.37754688,18.8168906 8.37754688,19.28475 C8.37754688,19.7526094 8.75676562,20.1318281 9.224625,20.1318281 C12.1670156,20.1318281 14.5611094,17.7377344 14.5611094,14.795625 C14.5611094,14.3277188 14.1819375,13.9485 13.7140781,13.9485 Z" id="Path"></path>
        </g>
    </g>
</svg>