<?xml version="1.0" encoding="UTF-8"?>
<svg width="32px" height="32px" viewBox="0 0 32 32" version="1.1" xmlns="http://www.w3.org/2000/svg" xmlns:xlink="http://www.w3.org/1999/xlink">
    <title>wifi</title>
    <g id="wifi" stroke="none" stroke-width="1" fill="none" fill-rule="evenodd">
        <g transform="translate(4.000000, 5.000000)" fill="#000000" fill-rule="nonzero" stroke="#FFFFFF">
            <path d="M11.9809839,12.4003065 C9.70045161,12.4003065 7.85196774,14.2487903 7.85196774,16.5293226 C7.85196774,18.8098548 9.70045161,20.6583387 11.9809839,20.6583387 C14.2615161,20.6583387 16.11,18.8098548 16.11,16.5293226 C16.11,14.2487903 14.2615645,12.4003065 11.9809839,12.4003065 Z M11.9809839,18.5938548 C10.8406452,18.5938548 9.91645161,17.6697097 9.91645161,16.5293226 C9.91645161,15.3889355 10.8405968,14.4647903 11.9809839,14.4647903 C13.121371,14.4647903 14.0455161,15.3889355 14.0455161,16.5293226 C14.0455161,17.6697097 13.121371,18.5938548 11.9809839,18.5938548 Z" id="Shape" stroke-width="0.3"></path>
            <path d="M6.14162903,10.6899677 C5.73851613,11.0930806 5.73851613,11.7466935 6.14162903,12.1498065 C6.54474194,12.5529194 7.19835484,12.5529194 7.60146774,12.1498065 C10.0205323,9.73074194 13.9419194,9.73074194 16.3609839,12.1498065 C16.7640968,12.5529194 17.4177097,12.5529194 17.8208226,12.1498065 C18.2239355,11.7466935 18.2239355,11.0930806 17.8208226,10.6899677 C14.5954839,7.46462903 9.36691935,7.46462903 6.14162903,10.6899677 Z" id="Path" stroke-width="0.1"></path>
            <path d="M3.222,7.77033871 C2.8188871,8.17345161 2.8188871,8.82706452 3.222,9.23017742 C3.6251129,9.63329032 4.27872581,9.63329032 4.68183871,9.23017742 C8.71330645,5.19870968 15.2492903,5.19870968 19.2797419,9.23008065 C19.6828065,9.63324194 20.3364194,9.63333871 20.7395806,9.23022581 C21.1427419,8.82716129 21.1428387,8.17354839 20.7397258,7.7703871 C15.9030484,2.93259677 8.05969355,2.93259677 3.222,7.77033871 Z" id="Path" stroke-width="0.1"></path>
            <path d="M23.6594516,4.85066129 C17.2093548,-1.59943548 6.75241935,-1.59943548 0.302322581,4.85066129 C-0.100790323,5.25377419 -0.100790323,5.9073871 0.302322581,6.3105 C0.705435484,6.7136129 1.35904839,6.7136129 1.76216129,6.3105 C7.40603226,0.666677419 16.5557903,0.666677419 22.1996129,6.3105 C22.6027258,6.7136129 23.2563387,6.7136129 23.6594516,6.3105 C24.0625645,5.9073871 24.0625645,5.25382258 23.6594516,4.85066129 Z" id="Path" stroke-width="0.1"></path>
        </g>
    </g>
</svg>