<?xml version="1.0" encoding="UTF-8"?>
<svg width="32px" height="32px" viewBox="0 0 32 32" version="1.1" xmlns="http://www.w3.org/2000/svg" xmlns:xlink="http://www.w3.org/1999/xlink">
    <title>television</title>
    <g id="television" stroke="none" stroke-width="1" fill="none" fill-rule="evenodd">
        <g id="monitor" transform="translate(4.000000, 5.000000)" fill="#000000" fill-rule="nonzero" stroke="#000000" stroke-width="0.25">
            <path d="M22.59375,0 L1.40625,0 C0.63084375,0 0,0.63084375 0,1.40625 L0,15.375 C0,16.1504063 0.63084375,16.78125 1.40625,16.78125 L8.296875,16.78125 L8.296875,20.25 L4.5,20.25 C4.1116875,20.25 3.796875,20.5648125 3.796875,20.953125 C3.796875,21.3414375 4.1116875,21.65625 4.5,21.65625 L19.5,21.65625 C19.8883125,21.65625 20.203125,21.3414375 20.203125,20.953125 C20.203125,20.5648125 19.8883125,20.25 19.5,20.25 L15.703125,20.25 L15.703125,16.78125 L22.59375,16.78125 C23.3691563,16.78125 24,16.1504062 24,15.375 L24,1.40625 C24,0.63084375 23.3691562,0 22.59375,0 Z M14.296875,20.25 L9.703125,20.25 L9.703125,16.78125 L14.296875,16.78125 L14.296875,20.25 Z M22.59375,15.375 C21.9770156,15.375 1.9005,15.375 1.40625,15.375 L1.40625,1.40625 L22.59375,1.40625 C22.5946406,15.678375 22.5984375,15.375 22.59375,15.375 Z" id="Shape"></path>
        </g>
    </g>
</svg>