<?xml version="1.0" encoding="UTF-8"?>
<svg width="32px" height="32px" viewBox="0 0 32 32" version="1.1" xmlns="http://www.w3.org/2000/svg" xmlns:xlink="http://www.w3.org/1999/xlink">
    <title>heater</title>
    <g id="heater" stroke="none" stroke-width="1" fill="none" fill-rule="evenodd">
        <g id="temperature" transform="translate(10.000000, 4.000000)" fill="#000000" fill-rule="nonzero">
            <path d="M6.65231799,18.0036151 C6.50189121,17.7430795 6.28553975,17.526728 6.02500418,17.3763013 L6.02500418,9.42592469 C6.02500418,8.95265272 5.64135565,8.56900418 5.16808368,8.56900418 C4.69481172,8.56900418 4.31116318,8.95265272 4.31116318,9.42592469 L4.31116318,17.3763013 C3.4914477,17.8495732 3.21062762,18.8976904 3.68384937,19.7174059 C4.15707113,20.5371213 5.20523849,20.8179414 6.02495397,20.3447197 C6.84471967,19.8714477 7.12558996,18.8232803 6.65231799,18.0036151 Z" id="Path"></path>
            <path d="M9.45263598,16.0343598 L9.45263598,4.28450209 C9.44982427,1.91939749 7.53323849,0.00281171548 5.16813389,0 C2.80302929,0.00281171548 0.886443515,1.91939749 0.883631799,4.28450209 L0.883631799,16.0343598 C0.104334728,17.1976569 -0.159564854,18.6312803 0.154393305,19.9958159 C0.605221757,21.9551297 2.15282008,23.4742594 4.12016736,23.8887364 C4.46269456,23.9572218 4.81114644,23.9915812 5.16045188,23.9915812 C7.99712134,23.9986444 10.302477,21.7048368 10.3095565,18.8681674 C10.3095565,18.8627448 10.3095565,18.8573222 10.3095565,18.8518494 C10.3088033,17.8486695 10.0106109,16.8681339 9.45263598,16.0343598 Z M7.34209205,21.5065607 L7.34038494,21.5082678 C5.87648536,22.7084686 3.71678661,22.4946778 2.51658577,21.030728 C2.18078661,20.6211715 1.94450209,20.1393138 1.82620921,19.6230628 C1.60117155,18.6451883 1.82083682,17.6179079 2.42605858,16.8175732 C2.53732218,16.6692552 2.59742259,16.4888536 2.59742259,16.303431 L2.59742259,4.28450209 C2.59742259,2.8647364 3.7483682,1.71379079 5.16813389,1.71379079 C6.58789958,1.71379079 7.73884519,2.8647364 7.73884519,4.28450209 L7.73884519,16.3042845 C7.73884519,16.4897071 7.79899582,16.6701088 7.91020921,16.8184268 C9.01390795,18.2792636 8.76276151,20.3516987 7.34209205,21.5065607 Z" id="Shape"></path>
        </g>
    </g>
</svg>